<?xml version="1.0" encoding="iso-8859-1"?>
<!-- Generator: Adobe Illustrator 19.0.0, SVG Export Plug-In . SVG Version: 6.00 Build 0)  -->
<svg version="1.1" id="Layer_1" xmlns="http://www.w3.org/2000/svg" xmlns:xlink="http://www.w3.org/1999/xlink" x="0px" y="0px"
	 viewBox="0 0 512 512" style="enable-background:new 0 0 512 512;" xml:space="preserve">
<g>
	<g>
		<g>
			<path d="M158.766,146.4h151.175c6.897,0,12.488-5.591,12.488-12.488V12.488C322.429,5.591,316.838,0,309.941,0H158.766
				c-6.897,0-12.488,5.591-12.488,12.488v121.424C146.278,140.809,151.869,146.4,158.766,146.4z"/>
			<rect x="126.039" y="356.839" width="259.921" height="86.478"/>
			<rect x="126.039" y="245.385" width="259.921" height="86.478"/>
			<path d="M506.505,158.847C426.675,79.017,387.937,40.088,368.696,20.948c-7.877-7.836-21.292-2.254-21.292,8.856v129.083
				c0,6.897-5.591,12.488-12.488,12.488H133.791c-6.897,0-12.488-5.591-12.488-12.488v-146.4C121.303,5.591,115.712,0,108.815,0
				H18.732C8.387,0,0,8.387,0,18.732v474.537C0,503.613,8.387,512,18.732,512h474.537c10.345,0,18.732-8.387,18.732-18.732V172.101
				C512,167.133,510.018,162.361,506.505,158.847z M410.935,455.805h-0.001c0,6.897-5.591,12.488-12.488,12.488H113.554
				c-6.897,0-12.488-5.591-12.488-12.488V232.9c0-6.897,5.591-12.488,12.488-12.488h284.893c6.897,0,12.488,5.591,12.488,12.488
				V455.805z"/>
		</g>
	</g>
</g>
<g>
</g>
<g>
</g>
<g>
</g>
<g>
</g>
<g>
</g>
<g>
</g>
<g>
</g>
<g>
</g>
<g>
</g>
<g>
</g>
<g>
</g>
<g>
</g>
<g>
</g>
<g>
</g>
<g>
</g>
</svg>
